<svg xmlns="http://www.w3.org/2000/svg" xmlns:xlink="http://www.w3.org/1999/xlink" width="16" height="16" version="1.1" x="0px" y="0px" viewBox="0 0 100 125" enable-background="new 0 0 100 100" xml:space="preserve"><path d="M60.194,53.002l-7.51-2.44l4.641-6.387c0.406-0.559,0.283-1.34-0.275-1.746c-0.559-0.405-1.34-0.281-1.746,0.276  l-4.642,6.388l-4.64-6.389c-0.406-0.559-1.188-0.683-1.746-0.275c-0.559,0.405-0.683,1.188-0.277,1.746l4.641,6.387l-7.508,2.44  c-0.657,0.214-1.017,0.919-0.803,1.575c0.172,0.528,0.661,0.864,1.188,0.864c0.129,0,0.259-0.021,0.387-0.062l7.509-2.439v7.895  c0,0.69,0.56,1.25,1.25,1.25s1.25-0.56,1.25-1.25V52.94l7.509,2.439c0.129,0.041,0.259,0.062,0.387,0.062  c0.527,0,1.018-0.336,1.189-0.864C61.21,53.921,60.851,53.216,60.194,53.002z"/><path d="M50.817,45.372c0.605,0,1.332-3.895,1.332-6.905s-0.597-3.997-1.332-3.997c-0.736,0-1.333,0.986-1.333,3.997  S50.211,45.372,50.817,45.372z"/><path d="M45.148,49.265c0.188-0.576-3.292-2.47-6.155-3.4c-2.863-0.93-3.985-0.668-4.213,0.031c-0.228,0.701,0.526,1.573,3.39,2.504  C41.033,49.329,44.962,49.842,45.148,49.265z"/><path d="M41.965,60.663c-1.771,2.436-1.868,3.584-1.272,4.017s1.658-0.016,3.429-2.45c1.769-2.436,3.47-6.014,2.979-6.37  C46.61,55.504,43.733,58.228,41.965,60.663z"/><path d="M53.976,56.041c-0.49,0.356,1.211,3.935,2.98,6.369c1.77,2.436,2.833,2.884,3.428,2.452c0.595-0.435,0.498-1.583-1.272-4.02  C57.342,58.408,54.466,55.685,53.976,56.041z"/><path d="M62.427,46.157c-2.862,0.931-6.342,2.826-6.154,3.401c0.188,0.576,4.115,0.063,6.979-0.866s3.617-1.803,3.39-2.503  C66.412,45.489,65.291,45.227,62.427,46.157z"/><path d="M91.369,43.45c-0.71-2.189-3.321-2.771-5.173-3.128c1.289-1.377,3.059-3.382,2.348-5.571  c-1.129-3.472-6.9-5.748-13.61-5.271c-4.063,0.289-7.708,1.75-10.267,3.086c0.484-2.613,0.867-6.509-0.164-10.665  c-1.844-7.428-6.033-11.314-9.22-11.314c-2.302,0-3.661,2.302-4.573,3.954c-0.91-1.651-2.271-3.954-4.571-3.954  c-3.187,0-7.378,3.887-9.221,11.314c-0.969,3.906-0.721,7.78-0.252,10.618c-2.554-1.322-6.159-2.754-10.178-3.039  c-6.714-0.482-12.483,1.799-13.61,5.271c-0.711,2.189,1.059,4.194,2.348,5.571c-1.852,0.356-4.463,0.938-5.174,3.128  c-0.984,3.029,1.417,8.216,7.912,12.264c3.415,2.129,7.177,3.09,10.022,3.521c-2.048,2.02-4.525,5.007-6.038,8.74  c-2.877,7.092-1.771,12.699,0.809,14.572c0.592,0.431,1.304,0.648,2.113,0.648c1.359,0,2.755-0.618,3.91-1.16  c-0.234,1.871-0.487,4.535,1.375,5.888c0.871,0.632,2.066,0.967,3.459,0.967c3.215,0,7.098-1.714,10.65-4.702  c3.181-2.675,5.16-6.162,6.35-8.619c1.313,2.674,3.4,5.978,6.543,8.62c3.551,2.987,7.434,4.701,10.648,4.701  c1.393,0,2.59-0.335,3.459-0.967c1.863-1.353,1.61-4.015,1.377-5.887c1.154,0.542,2.549,1.161,3.908,1.161c0,0,0,0,0.001,0  c0.81,0,1.521-0.219,2.114-0.65c2.578-1.873,3.684-7.48,0.809-14.572c-1.531-3.776-4.047-6.789-6.107-8.811  c2.635-0.346,6.457-1.186,10.092-3.451C89.954,51.665,92.354,46.479,91.369,43.45z M81.87,53.168  c-4.451,2.774-9.19,3.104-11.214,3.244c-0.999,0.069-1.943,0.135-2.263,1.183c-0.182,0.595,0.043,1.275,0.533,1.658  c1.658,1.289,5.73,4.83,7.766,9.85c2.473,6.098,1.355,10.186,0.209,11.02c-0.069,0.05-0.188,0.076-0.352,0.076  c-0.773,0-1.973-0.564-2.848-0.977c-0.951-0.449-1.639-0.772-2.326-0.772c-0.514,0-0.879,0.187-1.092,0.343  c-0.986,0.716-0.83,1.951-0.648,3.383c0.111,0.884,0.373,2.953-0.134,3.322c-0.345,0.25-0.962,0.394-1.696,0.394  c-2.482,0-5.742-1.494-8.718-3.997c-4.1-3.449-6.214-8.381-6.934-10.34c-0.216-0.592-0.83-1.039-1.46-1.039  c-1.078,0-1.436,0.799-2.028,2.12c-0.919,2.05-2.831,6.313-6.333,9.259c-2.977,2.502-6.235,3.997-8.719,3.997  c-0.733,0-1.352-0.144-1.696-0.394c-0.506-0.368-0.243-2.438-0.132-3.32c0.182-1.434,0.338-2.67-0.648-3.386  c-0.215-0.156-0.58-0.343-1.093-0.343c-0.688,0-1.374,0.324-2.326,0.771c-0.875,0.412-2.073,0.977-2.849,0.977  c-0.163,0-0.281-0.025-0.351-0.075c-1.147-0.833-2.265-4.921,0.208-11.019c2.035-5.02,6.111-8.561,7.77-9.85  c0.498-0.387,0.701-1.046,0.506-1.646c-0.195-0.602-0.746-1.016-1.377-1.036c-2.102-0.069-7.484-0.541-12.076-3.402  c-5.583-3.48-7.082-7.443-6.645-8.791c0.193-0.596,2.243-0.986,3.119-1.153c1.416-0.27,2.641-0.502,3.018-1.662  c0.377-1.158-0.477-2.066-1.465-3.118c-0.611-0.649-2.039-2.169-1.846-2.765c0.428-1.318,3.544-3.268,8.874-3.268  c0.537,0,1.095,0.02,1.67,0.061c5.403,0.384,10.029,3.164,11.767,4.342c0.523,0.355,1.213,0.344,1.723-0.027  c0.512-0.371,0.735-1.023,0.561-1.63c-0.583-2.019-1.798-7.283-0.495-12.533c1.584-6.386,4.891-9.037,6.309-9.037  c0.625,0,1.63,1.828,2.058,2.608c0.695,1.266,1.295,2.357,2.515,2.357c1.219,0,1.818-1.092,2.513-2.355  c0.43-0.781,1.434-2.61,2.06-2.61c1.417,0,4.724,2.651,6.308,9.037c1.264,5.091,0.112,9.699-0.379,11.667  c-0.246,0.984-0.395,1.578,0.099,2.209c0.284,0.363,0.736,0.584,1.198,0.584c0,0,0,0,0.002,0c0.299,0,0.621-0.102,0.869-0.27  c1.738-1.178,6.365-3.958,11.767-4.342c0.575-0.041,1.132-0.061,1.67-0.061c5.329,0,8.446,1.95,8.874,3.268  c0.193,0.595-1.235,2.115-1.846,2.764c-0.988,1.053-1.842,1.961-1.465,3.12s1.601,1.392,3.018,1.661  c0.875,0.167,2.925,0.557,3.119,1.153C88.954,45.726,87.456,49.688,81.87,53.168z"/></svg>
