<?xml version="1.0" standalone="no"?>
<!DOCTYPE svg PUBLIC "-//W3C//DTD SVG 20010904//EN"
 "http://www.w3.org/TR/2001/REC-SVG-20010904/DTD/svg10.dtd">
<svg version="1.0" xmlns="http://www.w3.org/2000/svg"
 width="256.000000pt" height="256.000000pt" viewBox="0 0 256.000000 256.000000"
 preserveAspectRatio="xMidYMid meet">
<metadata>
Created by potrace 1.11, written by Peter Selinger 2001-2013
</metadata>
<g transform="translate(0.000000,256.000000) scale(0.100000,-0.100000)"
fill="#000000" stroke="none">
<path d="M1852 2192 l-73 -37 5 -85 5 -85 -12 75 c-10 65 -15 75 -34 78 -15 2
-36 -10 -64 -36 l-43 -39 16 -57 c9 -31 13 -56 10 -56 -4 0 -14 24 -22 53 -19
66 -42 72 -90 22 l-34 -35 18 -50 c10 -27 16 -55 14 -61 -4 -11 -15 12 -32 64
-11 35 -36 31 -79 -11 l-41 -42 22 -46 c23 -47 24 -75 1 -33 -15 29 -35 49
-47 49 -10 0 -92 -85 -92 -95 0 -3 18 -21 40 -41 54 -49 51 -62 -6 -19 -52 40
-56 41 -76 18 -25 -28 -108 -200 -108 -223 0 -12 9 -38 20 -60 28 -55 25 -62
-14 -43 -65 31 -72 86 -21 177 19 35 35 66 35 69 0 4 -14 22 -31 42 -30 34
-49 44 -49 26 0 -17 -20 -64 -25 -59 -3 2 2 26 11 52 l17 48 -47 46 c-43 44
-46 45 -46 22 0 -14 -5 -32 -10 -40 -6 -10 -7 3 -3 38 6 50 4 55 -28 88 -18
18 -37 34 -41 34 -5 0 -18 -20 -30 -45 -12 -25 -25 -45 -29 -45 -7 0 15 78 37
128 24 56 13 192 -16 192 -4 0 -15 -15 -24 -32 -21 -42 -44 -73 -51 -66 -3 3
4 16 15 31 24 30 26 55 4 64 -18 7 -166 -62 -190 -89 -10 -10 -13 -25 -9 -40
6 -22 6 -22 -10 -4 -15 19 -16 19 -50 -14 -19 -19 -35 -38 -35 -42 0 -5 11
-26 25 -46 35 -52 31 -62 -10 -22 -19 18 -36 32 -38 29 -34 -38 -34 -99 -2
-137 35 -41 31 -52 -5 -17 -16 16 -31 27 -34 24 -14 -16 -26 -52 -26 -77 0
-29 17 -49 76 -90 18 -12 18 -13 -1 -6 -11 4 -31 7 -45 8 -23 1 -25 -2 -23
-36 3 -56 65 -169 117 -215 49 -43 59 -61 25 -43 -11 7 -23 9 -26 7 -10 -11
19 -47 79 -99 92 -79 124 -101 216 -147 45 -23 82 -45 82 -49 0 -4 -26 -20
-57 -37 -36 -19 -66 -43 -79 -65 -12 -19 -33 -45 -46 -58 -12 -12 -33 -32 -46
-44 -16 -15 -22 -31 -20 -52 4 -36 24 -45 33 -16 7 24 70 58 82 45 5 -4 4 -9
-2 -12 -25 -9 -37 -22 -31 -32 13 -20 69 -12 109 16 49 34 123 37 164 6 70
-51 138 -67 185 -42 26 14 31 8 18 -25 -5 -14 -22 -31 -37 -37 -80 -30 -119
-94 -73 -119 18 -9 20 -8 20 15 0 17 7 28 23 34 28 11 34 -4 11 -30 -16 -18
-16 -19 7 -19 35 0 49 18 49 62 0 27 5 40 19 48 30 15 31 14 31 -42 0 -51 -1
-53 -69 -117 -37 -36 -85 -80 -105 -98 -31 -26 -37 -37 -34 -64 3 -34 28 -54
28 -23 0 16 1 16 15 -2 13 -18 14 -18 15 -1 0 10 10 28 23 40 12 12 31 35 41
52 18 27 20 28 26 10 4 -11 4 -28 -1 -37 -12 -23 -11 -28 4 -28 18 0 57 42 57
62 0 9 -7 21 -15 28 -8 7 -15 20 -15 29 0 9 57 69 128 133 70 64 158 149 197
188 l69 70 67 -66 66 -66 52 26 c54 28 60 36 36 56 -9 7 -13 15 -10 18 3 3 13
-3 24 -12 17 -16 22 -16 48 -3 15 9 41 29 56 45 l29 30 -41 7 c-23 4 -44 12
-48 18 -4 7 0 8 11 4 10 -4 34 -10 55 -13 35 -6 39 -4 65 36 30 46 25 59 -24
60 -14 0 -31 4 -39 9 -9 6 5 8 40 7 52 -1 54 0 73 36 17 30 18 40 8 62 -11 25
-15 26 -64 21 l-53 -5 50 15 c59 17 85 45 85 92 0 27 -19 82 -35 101 -1 1 -26
-13 -55 -33 -29 -19 -64 -38 -79 -42 -14 -3 -38 -12 -53 -20 -35 -17 -35 -10
-2 25 30 32 94 154 94 179 0 10 -4 24 -9 32 -15 23 -108 -35 -133 -82 -21 -43
-36 -46 -17 -3 7 14 10 29 7 32 -3 3 -55 -20 -115 -50 -89 -44 -112 -60 -123
-85 -25 -61 -70 -121 -109 -146 -58 -36 -61 -31 -14 18 22 23 51 61 62 85 28
55 83 116 140 154 75 50 141 102 141 109 0 13 -32 19 -51 9 -24 -14 -24 -2 0
24 111 119 193 322 208 511 4 51 1 65 -19 94 -12 19 -27 36 -33 37 -5 2 -43
-14 -83 -34z"/>
</g>
</svg>
