---
layout: none
permalink: /assets/icons/oct.svg
---
<svg xmlns="http://www.w3.org/2000/svg" xmlns:xlink="http://www.w3.org/1999/xlink">
<symbol id="rss" fill-rule="evenodd" clip-rule="evenodd" stroke-linejoin="round" stroke-miterlimit="1.414" viewBox="0 0 24 24"><path d="M3.5 3.25a.75.75 0 01.75-.75C14.053 2.5 22 10.447 22 20.25a.75.75 0 01-1.5 0C20.5 11.275 13.225 4 4.25 4a.75.75 0 01-.75-.75zM3.5 19a2 2 0 114 0 2 2 0 01-4 0zm.75-9.5a.75.75 0 000 1.5 9.25 9.25 0 019.25 9.25.75.75 0 001.5 0C15 14.313 10.187 9.5 4.25 9.5z"/></symbol>
<symbol id="search" fill-rule="evenodd" clip-rule="evenodd" stroke-linejoin="round" stroke-miterlimit="1.414" viewBox="0 0 24 24"><path d="M14.53 15.59a8.25 8.25 0 111.06-1.06l5.69 5.69a.75.75 0 11-1.06 1.06l-5.69-5.69zM2.5 9.25a6.75 6.75 0 1111.74 4.547.746.746 0 00-.443.442A6.75 6.75 0 012.5 9.25z"/></symbol>
<symbol id="mail" fill-rule="evenodd" clip-rule="evenodd" stroke-linejoin="round" stroke-miterlimit="1.414" viewBox="0 0 16 16"><path d="M1.75 2A1.75 1.75 0 000 3.75v.736a.75.75 0 000 .027v7.737C0 13.216.784 14 1.75 14h12.5A1.75 1.75 0 0016 12.25v-8.5A1.75 1.75 0 0014.25 2H1.75zM14.5 4.07v-.32a.25.25 0 00-.25-.25H1.75a.25.25 0 00-.25.25v.32L8 7.88l6.5-3.81zm-13 1.74v6.441c0 .138.112.25.25.25h12.5a.25.25 0 00.25-.25V5.809L8.38 9.397a.75.75 0 01-.76 0L1.5 5.809z"/></symbol>
<symbol id="key" fill-rule="evenodd" clip-rule="evenodd" stroke-linejoin="round" stroke-miterlimit="1.414" viewBox="0 0 16 16"><path d="M6.5 5.5a4 4 0 112.731 3.795.75.75 0 00-.768.18L7.44 10.5H6.25a.75.75 0 00-.75.75v1.19l-.06.06H4.25a.75.75 0 00-.75.75v1.19l-.06.06H1.75a.25.25 0 01-.25-.25v-1.69l5.024-5.023a.75.75 0 00.181-.768A3.995 3.995 0 016.5 5.5zm4-5.5a5.5 5.5 0 00-5.348 6.788L.22 11.72a.75.75 0 00-.22.53v2C0 15.216.784 16 1.75 16h2a.75.75 0 00.53-.22l.5-.5a.75.75 0 00.22-.53V14h.75a.75.75 0 00.53-.22l.5-.5a.75.75 0 00.22-.53V12h.75a.75.75 0 00.53-.22l.932-.932A5.5 5.5 0 1010.5 0zm.5 6a1 1 0 100-2 1 1 0 000 2z"/></symbol>
<symbol id="calendar" fill-rule="evenodd" clip-rule="evenodd" stroke-linejoin="round" stroke-miterlimit="1.414" viewBox="0 0 16 16"><path d="M4.75 0a.75.75 0 01.75.75V2h5V.75a.75.75 0 011.5 0V2h1.25c.966 0 1.75.784 1.75 1.75v10.5A1.75 1.75 0 0113.25 16H2.75A1.75 1.75 0 011 14.25V3.75C1 2.784 1.784 2 2.75 2H4V.75A.75.75 0 014.75 0zm0 3.5h8.5a.25.25 0 01.25.25V6h-11V3.75a.25.25 0 01.25-.25h2zm-2.25 4v6.75c0 .138.112.25.25.25h10.5a.25.25 0 00.25-.25V7.5h-11z"/></symbol>
<symbol id="person" fill-rule="evenodd" clip-rule="evenodd" stroke-linejoin="round" stroke-miterlimit="1.414" viewBox="0 0 16 16"><path d="M10.5 5a2.5 2.5 0 11-5 0 2.5 2.5 0 015 0zm.061 3.073a4 4 0 10-5.123 0 6.004 6.004 0 00-3.431 5.142.75.75 0 001.498.07 4.5 4.5 0 018.99 0 .75.75 0 101.498-.07 6.005 6.005 0 00-3.432-5.142z"/></symbol>
<symbol id="tag" fill-rule="evenodd" clip-rule="evenodd" stroke-linejoin="round" stroke-miterlimit="1.414" viewBox="0 0 16 16"><path d="M2.5 7.775V2.75a.25.25 0 01.25-.25h5.025a.25.25 0 01.177.073l6.25 6.25a.25.25 0 010 .354l-5.025 5.025a.25.25 0 01-.354 0l-6.25-6.25a.25.25 0 01-.073-.177zm-1.5 0V2.75C1 1.784 1.784 1 2.75 1h5.025c.464 0 .91.184 1.238.513l6.25 6.25a1.75 1.75 0 010 2.474l-5.026 5.026a1.75 1.75 0 01-2.474 0l-6.25-6.25A1.75 1.75 0 011 7.775zM6 5a1 1 0 100 2 1 1 0 000-2z"/></symbol>
</svg>
