<?xml version="1.0" standalone="no"?>
<!DOCTYPE svg PUBLIC "-//W3C//DTD SVG 20010904//EN"
 "http://www.w3.org/TR/2001/REC-SVG-20010904/DTD/svg10.dtd">
<svg version="1.0" xmlns="http://www.w3.org/2000/svg"
 width="70.000000pt" height="70.000000pt" viewBox="0 0 70.000000 70.000000"
 preserveAspectRatio="xMidYMid meet">
<metadata>
Created by potrace 1.14, written by Peter Selinger 2001-2017
</metadata>
<g transform="translate(0.000000,70.000000) scale(0.100000,-0.100000)"
fill="#000000" stroke="none">
<path d="M170 475 c0 -81 2 -94 18 -99 9 -2 65 -4 125 -3 l107 2 0 -32 0 -32
-122 -3 -122 -3 -42 -85 c-24 -47 -43 -88 -43 -92 -1 -5 91 -8 203 -8 195 0
204 1 237 23 18 12 44 37 56 56 20 30 22 43 20 149 -2 105 -4 120 -25 150 -42
59 -69 66 -249 68 l-163 2 0 -93z"/>
</g>
</svg>
